<?xml version="1.0" encoding="UTF-8" standalone="no"?>
<svg
   width="20.803749"
   height="15.231442"
   viewBox="0 0 20.803749 15.231442"
   fill="none"
   version="1.1"
   id="svg139"
   sodipodi:docname="credit_card_chosen.svg"
   inkscape:version="1.1 (c68e22c387, 2021-05-23)"
   xmlns:inkscape="http://www.inkscape.org/namespaces/inkscape"
   xmlns:sodipodi="http://sodipodi.sourceforge.net/DTD/sodipodi-0.dtd"
   xmlns="http://www.w3.org/2000/svg"
   xmlns:svg="http://www.w3.org/2000/svg">
  <defs
     id="defs143" />
  <sodipodi:namedview
     id="namedview141"
     pagecolor="#ffffff"
     bordercolor="#666666"
     borderopacity="1.0"
     inkscape:pageshadow="2"
     inkscape:pageopacity="0.0"
     inkscape:pagecheckerboard="0"
     showgrid="false"
     inkscape:zoom="33.125"
     inkscape:cx="9.9773585"
     inkscape:cy="7.954717"
     inkscape:window-width="1366"
     inkscape:window-height="715"
     inkscape:window-x="-8"
     inkscape:window-y="-8"
     inkscape:window-maximized="1"
     inkscape:current-layer="svg139" />
  <path
     d="M 17.91215,0 H 2.8916 C 0.99316,0 0,0.9843722 0,2.8652322 v 0.79102 h 20.80375 v -0.79102 C 20.80375,0.9843722 19.81935,0 17.91215,0 Z M 3.67383,12.418942 c -0.51856,0 -0.87012,-0.3428 -0.87012,-0.8437 V 9.9492422 c 0,-0.49221 0.35156,-0.84377 0.87012,-0.84377 h 2.15332 c 0.50976,0 0.86133,0.35156 0.86133,0.84377 v 1.6259998 c 0,0.5009 -0.35157,0.8437 -0.86133,0.8437 z m -0.78223,2.8125 h 15.02055 c 1.9072,0 2.8916,-0.9932 2.8916,-2.874 V 5.7216822 H 0 v 6.6357598 c 0,1.8896 0.99316,2.874 2.8916,2.874 z"
     fill="#8e8e93"
     id="path137"
     style="fill:#007aff;fill-opacity:1" />
</svg>
