<?xml version="1.0" encoding="UTF-8" standalone="no"?>
<svg
   width="20.10717"
   height="20.110464"
   viewBox="0 0 20.10717 20.110464"
   fill="none"
   version="1.1"
   id="svg19"
   sodipodi:docname="seal.fill.svg"
   inkscape:version="1.1 (c68e22c387, 2021-05-23)"
   xmlns:inkscape="http://www.inkscape.org/namespaces/inkscape"
   xmlns:sodipodi="http://sodipodi.sourceforge.net/DTD/sodipodi-0.dtd"
   xmlns="http://www.w3.org/2000/svg"
   xmlns:svg="http://www.w3.org/2000/svg">
  <defs
     id="defs23" />
  <sodipodi:namedview
     id="namedview21"
     pagecolor="#ffffff"
     bordercolor="#666666"
     borderopacity="1.0"
     inkscape:pageshadow="2"
     inkscape:pageopacity="0.0"
     inkscape:pagecheckerboard="0"
     showgrid="false"
     inkscape:zoom="24.142857"
     inkscape:cx="10.914201"
     inkscape:cy="10.66568"
     inkscape:window-width="1366"
     inkscape:window-height="715"
     inkscape:window-x="-8"
     inkscape:window-y="-8"
     inkscape:window-maximized="1"
     inkscape:current-layer="svg19" />
  <path
     d="m 15.370992,17.756087 h -1.8809 c -0.1758,0 -0.29,0.0352 -0.4131,0.167 l -1.3359,1.3272 c -1.1514,1.1513 -2.2235995,1.1425 -3.3662095,0 l -1.33594,-1.3272 c -0.12305,-0.1318 -0.24609,-0.167 -0.41308,-0.167 h -1.88086 c -1.61719,0 -2.38184,-0.7646 -2.38184,-2.3906 v -1.8809 c 0,-0.167 -0.05273,-0.29 -0.17578,-0.4131 l -1.32714997,-1.3359 c -1.151367,-1.1426 -1.142578,-2.2147995 0,-3.3574095 l 1.32714997,-1.34473 c 0.12305,-0.12305 0.17578,-0.23731 0.17578,-0.4043 v -1.88086 c 0,-1.61718 0.75586,-2.39062 2.38184,-2.39062 h 1.88086 c 0.16699,0 0.29003,-0.04395 0.41308,-0.16699 l 1.33594,-1.32715 c 1.14261,-1.15137 2.2148095,-1.15137 3.3662095,0 l 1.3359,1.32715 c 0.1143,0.12304 0.2373,0.16699 0.4131,0.16699 h 1.8809 c 1.6172,0 2.3818,0.75586 2.3818,2.39062 v 1.88086 c 0,0.16699 0.044,0.28125 0.167,0.4043 l 1.3272,1.34473 c 1.1513,1.14261 1.1425,2.2148095 0,3.3574095 l -1.3272,1.3359 c -0.123,0.1231 -0.167,0.2461 -0.167,0.4131 v 1.8809 c 0,1.6172 -0.7646,2.3906 -2.3818,2.3906 z"
     fill="#8e8e93"
     id="path17" />
</svg>
