<?xml version="1.0" encoding="UTF-8" standalone="no"?>
<svg
   width="340.26392"
   height="534.15057"
   viewBox="0 0 340.2639 534.15058"
   fill="none"
   version="1.1"
   id="svg4"
   xmlns="http://www.w3.org/2000/svg"
   xmlns:svg="http://www.w3.org/2000/svg">
  <defs
     id="defs8">
    <filter
       style="color-interpolation-filters:sRGB"
       id="filter56"
       x="-0.004318766"
       y="-0.0030545454"
       width="1.0086375"
       height="1.0061091">
      <feTurbulence
         result="result1"
         numOctaves="10"
         baseFrequency="0.3"
         type="turbulence"
         id="feTurbulence40" />
      <feColorMatrix
         result="result0"
         in="SourceGraphic"
         type="luminanceToAlpha"
         id="feColorMatrix42" />
      <feColorMatrix
         values="1 0 0 0 0 0 1 0 0 0 0 0 1 0 0 0 0 0 0.4 0 "
         result="result2"
         id="feColorMatrix44" />
      <feComposite
         in="result2"
         operator="over"
         in2="result1"
         id="feComposite46" />
      <feColorMatrix
         values="1 0 0 0 0 0 1 0 0 0 0 0 1 0 0 0 0 0 10 -4 "
         result="result91"
         id="feColorMatrix48" />
      <feComposite
         operator="out"
         in="SourceGraphic"
         in2="result91"
         id="feComposite50" />
      <feGaussianBlur
         stdDeviation="0.7"
         id="feGaussianBlur52" />
      <feColorMatrix
         values="1 0 0 0 0 0 1 0 0 0 0 0 1 0 0 0 0 0 1 0 "
         id="feColorMatrix54" />
    </filter>
  </defs>
  <path
     d="m 43.070132,60.573981 c 0,2.1464 -0.3156,4.0614 -0.947,5.7449 -0.6313,1.6414 -1.5151,3.0303 -2.6515,4.1666 -1.1363,1.1364 -2.5042,1.9992 -4.1035,2.5884 -1.5993,0.5892 -3.367,0.8838 -5.303,0.8838 H 15.229382 V 30.018548 h 14.20445 c 4.2929,0 7.5547,1.094273 9.7853,3.282813 2.2306,2.18854 3.346,5.21882 3.346,9.09082 0,1.6414 -0.3999,3.2828 -1.1995,4.9243 -0.7997,1.5993 -2.1254,2.7777 -3.9773,3.5353 v 0.3156 c 1.0101,0.3367 1.8729,0.8418 2.5884,1.5152 0.7155,0.6734 1.3047,1.452 1.7677,2.3358 0.4629,0.8418 0.7996,1.7467 1.0101,2.7147 0.2104,0.968 0.3156,1.9149 0.3156,2.8409 z m -9.4696,-17.8661 c 0,-1.4731 -0.3578,-2.5673 -1.0733,-3.28282 -0.7154,-0.71548 -1.936,-1.07322 -3.6616,-1.07322 h -4.48226 v 8.90144 h 4.54546 c 1.6835,0 2.883,-0.4209 3.5984,-1.2626 0.7155,-0.8417 1.0733,-1.936 1.0733,-3.2828 z m 0.5681,17.361 c 0,-1.4731 -0.3787,-2.6515 -1.1363,-3.5353 -0.7155,-0.8839 -1.8939,-1.3258 -3.5354,-1.3258 h -5.11356 v 10.101 h 5.05046 c 1.8098,0 3.0514,-0.5051 3.7247,-1.5152 0.6734,-1.0101 1.0101,-2.2516 1.0101,-3.7247 z m 42.3604,0.0631 c 0,2.1886 -0.3577,4.1667 -1.0732,5.9343 -0.6734,1.7256 -1.6414,3.2197 -2.904,4.4823 -1.2206,1.2206 -2.6936,2.1675 -4.4192,2.8409 -1.6835,0.6313 -3.5564,0.947 -5.6187,0.947 -2.5252,0 -4.6927,-0.3998 -6.5024,-1.1995 -1.7677,-0.7996 -3.2197,-1.8729 -4.3561,-3.2197 -1.1363,-1.3888 -1.9781,-2.9882 -2.5252,-4.7979 -0.5051,-1.8098 -0.7576,-3.7037 -0.7576,-5.6818 v -15.6565 c 0,-1.6414 0.2525,-3.2828 0.7576,-4.9242 0.505,-1.68349 1.3257,-3.19863 2.4621,-4.54543 1.1364,-1.34679 2.5884,-2.44106 4.356,-3.28281 1.8098,-0.883831 3.9983,-1.325748 6.5656,-1.325748 2.399,0 4.4823,0.420873 6.25,1.262618 1.7677,0.79966 3.2197,1.87288 4.3561,3.21968 1.1363,1.30471 1.9781,2.79881 2.5252,4.4823 0.5892,1.68349 0.8838,3.38799 0.8838,5.11359 z m -9.2171,-16.7297 c 0,-0.4208 -0.0842,-0.9048 -0.2525,-1.452 -0.1263,-0.5471 -0.3788,-1.0732 -0.7576,-1.5783 -0.3788,-0.505 -0.8838,-0.92588 -1.5151,-1.26258 -0.5893,-0.37878 -1.3468,-0.56817 -2.2728,-0.56817 -0.9259,0 -1.7045,0.16835 -2.3358,0.50504 -0.6313,0.29462 -1.1574,0.69441 -1.5783,1.19951 -0.3788,0.4629 -0.6734,0.989 -0.8838,1.5783 -0.1684,0.5471 -0.2525,1.0732 -0.2525,1.5782 v 16.2878 c 0,1.6835 0.3788,3.0724 1.1363,4.1667 0.7997,1.0942 2.1044,1.6414 3.9141,1.6414 1.3048,0 2.4201,-0.4209 3.346,-1.2627 0.968,-0.8417 1.452,-1.9991 1.452,-3.4722 z m 36.625798,30.5554 v -23.9266 h -0.0631 l -12.247398,23.9266 h -8.5858 V 30.018548 h 9.0908 v 25.504933 h 0.1263 L 104.82163,30.018548 h 8.2701 v 43.939133 z m 35.5964,0 v -18.0554 h -9.975 v 18.0554 h -9.154 V 30.018548 h 9.154 v 17.550433 h 9.975 V 30.018548 h 9.027 v 43.939133 z m 16.69,0 V 30.018548 h 9.154 v 16.477133 h 5.619 c 2.315,0 4.335,0.3367 6.061,1.0101 1.725,0.6734 3.135,1.5994 4.229,2.7778 1.095,1.1785 1.915,2.6094 2.462,4.2929 0.548,1.6414 0.821,3.4301 0.821,5.3661 0,2.3569 -0.337,4.4192 -1.01,6.1869 -0.631,1.7256 -1.557,3.1776 -2.778,4.356 -1.178,1.1364 -2.63,1.9992 -4.356,2.5884 -1.683,0.5892 -3.556,0.8838 -5.618,0.8838 z m 14.268,-8.4595 c 1.683,0 2.925,-0.484 3.725,-1.452 0.841,-0.9681 1.262,-2.2728 1.262,-3.9142 0,-1.8939 -0.442,-3.2196 -1.325,-3.9772 -0.884,-0.7576 -2.126,-1.1364 -3.725,-1.1364 h -5.051 v 10.4798 z m 17.55,8.4595 V 30.018548 h 9.154 v 43.939133 z"
     fill="#000000"
     id="path2" />
  <g
     style="fill:none"
     id="g19"
     transform="translate(17.744237,-0.38961)">
    <path
       d="M 3.22802,7.28885 C 2.83686,7.11351 2.47268,6.81676 2.13547,6.39863 1.81175,5.967 1.57571,5.42073 1.42734,4.7598 L 0.375254,0.571702 H 3.18756 L 4.11825,4.27423 C 4.30708,5.02957 4.58359,5.54212 4.94777,5.81189 5.31196,6.08165 5.68963,6.21654 6.08079,6.21654 H 6.82938 V 0.511004 h 2.9337 V 6.21654 h 0.72832 c 0.1889,0 0.3777,-0.02698 0.5666,-0.08093 0.2023,-0.06744 0.3844,-0.17535 0.5462,-0.32372 0.1754,-0.14837 0.3372,-0.34395 0.4856,-0.58674 0.1484,-0.25628 0.2698,-0.57325 0.3642,-0.95092 l 0.9509,-3.702528 h 2.8123 L 15.1449,4.7598 C 14.9965,5.42073 14.7605,5.967 14.4368,6.39863 14.113,6.81676 13.7489,7.11351 13.3442,7.28885 l 0.0202,0.08093 c 0.5126,0.18884 0.9172,0.49907 1.214,0.93069 0.3102,0.41814 0.5463,0.96441 0.7081,1.63883 l 1.1533,4.6737 h -2.954 L 12.5754,10.8093 C 12.3731,10.0674 12.1168,9.54814 11.8066,9.25139 11.5098,8.94116 11.1052,8.78605 10.5926,8.78605 H 9.76308 V 14.613 H 6.82938 V 8.78605 H 5.99986 C 5.4873,8.78605 5.07591,8.94116 4.76568,9.25139 4.45545,9.54814 4.20592,10.0674 4.01708,10.8093 L 3.10663,14.613 H 0.132465 L 1.28571,9.9393 C 1.44757,9.26488 1.67687,8.71861 1.97361,8.30047 2.28384,7.86885 2.69523,7.55862 3.20779,7.36978 Z M 17.9762,14.613 V 0.531236 h 8.1941 V 3.24238 h -5.2604 v 2.91346 h 4.532 v 2.69091 h -4.532 v 2.99435 h 5.2604 V 14.613 Z M 37.0398,0.531236 V 14.613 H 34.1466 V 3.26261 h -2.3874 v 4.34996 c 0,1.02511 -0.0473,1.9558 -0.1417,2.79203 -0.0944,0.8363 -0.29,1.5647 -0.5867,2.1851 -0.2967,0.6205 -0.7216,1.1331 -1.2746,1.5377 -0.5396,0.3912 -1.2612,0.6542 -2.1649,0.7891 L 26.9034,12.61 c 0.526,-0.1754 0.9307,-0.3979 1.2139,-0.6677 0.2968,-0.2833 0.5193,-0.6205 0.6677,-1.0116 0.1484,-0.3912 0.236,-0.8498 0.263,-1.37582 0.0405,-0.53953 0.0607,-1.15999 0.0607,-1.86138 V 0.531236 Z M 39.6311,14.613 V 0.531236 h 8.1942 V 3.24238 h -5.2605 v 2.91346 h 4.5321 v 2.69091 h -4.5321 v 2.99435 h 5.2605 v 2.7719 z m 9.3319,-3.3384 c 0.4721,-0.1483 0.9374,-0.29 1.396,-0.4248 0.4586,-0.1484 0.924,-0.2968 1.3961,-0.4452 0.1079,0.4586 0.317,0.8296 0.6272,1.1128 0.3102,0.2698 0.6879,0.4047 1.133,0.4047 0.2563,0 0.4788,-0.0472 0.6677,-0.1417 0.2023,-0.1079 0.3641,-0.2427 0.4855,-0.4046 0.1214,-0.1619 0.2091,-0.3372 0.2631,-0.526 0.0674,-0.2024 0.1011,-0.398 0.1011,-0.5868 0,-0.2158 -0.0202,-0.42487 -0.0607,-0.62719 C 54.9316,9.42 54.8506,9.23116 54.7292,9.0693 54.6078,8.90744 54.4392,8.77931 54.2234,8.68489 54.0076,8.59047 53.7311,8.54326 53.3939,8.54326 H 52.3823 V 6.09514 h 1.0318 c 0.4317,0 0.7958,-0.11465 1.0926,-0.34395 0.3102,-0.2293 0.4653,-0.63395 0.4653,-1.21394 0,-0.13488 -0.027,-0.27651 -0.0809,-0.42488 C 54.8506,3.95051 54.7764,3.80214 54.6685,3.66726 54.5741,3.53237 54.4392,3.42447 54.2639,3.34354 54.0885,3.26261 53.8795,3.22214 53.6367,3.22214 c -0.4721,0 -0.8633,0.13489 -1.1735,0.40465 -0.2967,0.26977 -0.4991,0.62046 -0.607,1.05209 L 49.2058,3.66726 c 0.2698,-0.99813 0.7823,-1.79394 1.5377,-2.38743 0.7553,-0.593478 1.7467,-0.89022 2.9741,-0.89022 1.3219,0 2.3537,0.337206 3.0956,1.01162 0.7553,0.67441 1.133,1.62533 1.133,2.85277 0,0.20232 -0.0202,0.44511 -0.0607,0.72836 -0.0405,0.28325 -0.1147,0.56651 -0.2226,0.84976 -0.1079,0.28325 -0.2697,0.55302 -0.4855,0.8093 -0.2159,0.24279 -0.4924,0.44511 -0.8296,0.60697 v 0.06069 c 0.3237,0.10791 0.5935,0.27651 0.8093,0.50581 0.2158,0.21582 0.3844,0.46535 0.5058,0.7486 0.1349,0.26977 0.2293,0.56651 0.2833,0.89023 0.0674,0.32372 0.1011,0.64068 0.1011,0.95088 0,0.7689 -0.1213,1.4231 -0.3641,1.9626 -0.2428,0.5395 -0.5733,0.9846 -0.9914,1.3353 -0.4047,0.3507 -0.8835,0.607 -1.4365,0.7688 -0.5396,0.1619 -1.1195,0.2428 -1.74,0.2428 -1.2409,0 -2.2525,-0.3102 -3.0349,-0.9307 C 49.6981,13.163 49.1923,12.3267 48.963,11.2746 Z M 66.0132,14.613 V 8.82651 H 62.8165 V 14.613 H 59.8828 V 0.531236 h 2.9337 V 6.15584 h 3.1967 V 0.531236 h 2.8932 V 14.613 Z m 14.049,-4.4309 c 0,0.7014 -0.1146,1.3353 -0.3439,1.9018 -0.2158,0.553 -0.5261,1.0319 -0.9307,1.4365 -0.3912,0.3912 -0.8633,0.6947 -1.4163,0.9105 -0.5395,0.2023 -1.1397,0.3035 -1.8007,0.3035 -0.8092,0 -1.5039,-0.1282 -2.0839,-0.3844 -0.5665,-0.2563 -1.0318,-0.6003 -1.396,-1.0319 -0.3642,-0.4451 -0.634,-0.9577 -0.8093,-1.5377 -0.1619,-0.58 -0.2428,-1.1869 -0.2428,-1.82087 V 4.9419 c 0,-0.52605 0.0809,-1.05209 0.2428,-1.57813 0.1618,-0.53953 0.4249,-1.02511 0.789,-1.45673 0.3642,-0.43163 0.8296,-0.78232 1.3961,-1.052085 0.58,-0.283254 1.2814,-0.424881 2.1041,-0.424881 0.7689,0 1.4365,0.134883 2.0031,0.404648 0.5665,0.256278 1.0318,0.600228 1.396,1.031848 0.3642,0.41814 0.6339,0.89697 0.8093,1.4365 0.1888,0.53953 0.2832,1.08581 0.2832,1.63883 z M 77.1083,4.8205 c 0,-0.13488 -0.027,-0.29 -0.0809,-0.46534 C 76.9869,4.17981 76.906,4.01121 76.7846,3.84935 76.6632,3.68749 76.5013,3.55261 76.299,3.4447 76.1102,3.3233 75.8674,3.26261 75.5706,3.26261 c -0.2967,0 -0.5462,0.05395 -0.7486,0.16186 -0.2023,0.09442 -0.3709,0.22255 -0.5058,0.38441 -0.1214,0.14837 -0.2158,0.31698 -0.2832,0.50581 -0.054,0.17535 -0.0809,0.34395 -0.0809,0.50581 v 5.22 c 0,0.5395 0.1214,0.9846 0.3641,1.3353 0.2563,0.3507 0.6745,0.526 1.2544,0.526 0.4182,0 0.7756,-0.1348 1.0724,-0.4046 0.3102,-0.2698 0.4653,-0.6407 0.4653,-1.1128 z m 6.5989,9.7925 v 2.9539 h -2.4279 v -5.4425 l 1.1937,-0.2428 c 0.2833,-0.2967 0.4991,-0.6272 0.6475,-0.9914 0.1618,-0.3642 0.2832,-0.7688 0.3642,-1.21393 0.0809,-0.4586 0.1349,-0.97115 0.1618,-1.53766 0.027,-0.5665 0.0607,-1.2072 0.1012,-1.92207 l 0.263,-5.685304 h 8.0525 V 11.9423 h 1.2544 v 5.6246 H 90.8897 V 14.613 Z m 2.6505,-7.74903 c -0.027,0.44512 -0.054,0.91046 -0.081,1.39604 -0.0135,0.48557 -0.0472,0.95766 -0.1011,1.41626 -0.054,0.44513 -0.1349,0.87003 -0.2428,1.27463 -0.0944,0.3912 -0.2226,0.7216 -0.3844,0.9914 h 3.6418 V 3.26261 h -2.6707 z m 17.4343,3.31813 c 0,0.7014 -0.115,1.3353 -0.344,1.9018 -0.216,0.553 -0.526,1.0319 -0.931,1.4365 -0.391,0.3912 -0.863,0.6947 -1.416,0.9105 -0.54,0.2023 -1.1398,0.3035 -1.8008,0.3035 -0.8093,0 -1.5039,-0.1282 -2.0839,-0.3844 -0.5665,-0.2563 -1.0319,-0.6003 -1.396,-1.0319 -0.3642,-0.4451 -0.634,-0.9577 -0.8093,-1.5377 -0.1619,-0.58 -0.2428,-1.1869 -0.2428,-1.82087 V 4.9419 c 0,-0.52605 0.0809,-1.05209 0.2428,-1.57813 0.1618,-0.53953 0.4248,-1.02511 0.789,-1.45673 0.3642,-0.43163 0.8296,-0.78232 1.3961,-1.052085 0.58,-0.283254 1.2813,-0.424881 2.1041,-0.424881 0.7688,0 1.4368,0.134883 2.0028,0.404648 0.567,0.256278 1.032,0.600228 1.396,1.031848 0.364,0.41814 0.634,0.89697 0.81,1.4365 0.188,0.53953 0.283,1.08581 0.283,1.63883 z m -2.954,-5.3616 c 0,-0.13488 -0.027,-0.29 -0.081,-0.46534 -0.041,-0.17535 -0.121,-0.34395 -0.243,-0.50581 -0.121,-0.16186 -0.283,-0.29674 -0.485,-0.40465 -0.1892,-0.1214 -0.432,-0.18209 -0.7288,-0.18209 -0.2967,0 -0.5462,0.05395 -0.7486,0.16186 -0.2023,0.09442 -0.3709,0.22255 -0.5058,0.38441 -0.1214,0.14837 -0.2158,0.31698 -0.2832,0.50581 -0.054,0.17535 -0.081,0.34395 -0.081,0.50581 v 5.22 c 0,0.5395 0.1214,0.9846 0.3642,1.3353 0.2563,0.3507 0.6744,0.526 1.2544,0.526 0.4182,0 0.7758,-0.1348 1.0728,-0.4046 0.31,-0.2698 0.465,-0.6407 0.465,-1.1128 z m 14.105,0.16186 c 0,0.67441 -0.101,1.28813 -0.303,1.84115 -0.203,0.55302 -0.493,1.02511 -0.87,1.41626 -0.378,0.39116 -0.837,0.69465 -1.376,0.91046 -0.54,0.21581 -1.147,0.32372 -1.821,0.32372 h -1.7 V 14.613 H 105.94 V 0.531236 h 4.471 c 0.661,0 1.268,0.087674 1.821,0.263021 0.566,0.175348 1.045,0.445113 1.436,0.809293 0.405,0.36419 0.715,0.82953 0.931,1.39604 0.229,0.55302 0.344,1.21394 0.344,1.98277 z M 112.07,4.9419 c 0,-0.60697 -0.148,-1.0386 -0.445,-1.29488 -0.297,-0.26976 -0.701,-0.40464 -1.214,-0.40464 h -1.538 v 3.5002 h 1.558 c 0.432,0 0.809,-0.13488 1.133,-0.40465 0.337,-0.26976 0.506,-0.73511 0.506,-1.39603 z m 13.041,5.2402 c 0,0.7014 -0.115,1.3353 -0.344,1.9018 -0.216,0.553 -0.526,1.0319 -0.931,1.4365 -0.391,0.3912 -0.863,0.6947 -1.416,0.9105 -0.54,0.2023 -1.14,0.3035 -1.801,0.3035 -0.809,0 -1.504,-0.1282 -2.084,-0.3844 -0.566,-0.2563 -1.031,-0.6003 -1.396,-1.0319 -0.364,-0.4451 -0.634,-0.9577 -0.809,-1.5377 -0.162,-0.58 -0.243,-1.1869 -0.243,-1.82087 V 4.9419 c 0,-0.52605 0.081,-1.05209 0.243,-1.57813 0.162,-0.53953 0.425,-1.02511 0.789,-1.45673 0.364,-0.43163 0.83,-0.78232 1.396,-1.052085 0.58,-0.283254 1.282,-0.424881 2.104,-0.424881 0.769,0 1.437,0.134883 2.003,0.404648 0.567,0.256278 1.032,0.600228 1.396,1.031848 0.365,0.41814 0.634,0.89697 0.81,1.4365 0.188,0.53953 0.283,1.08581 0.283,1.63883 z m -2.954,-5.3616 c 0,-0.13488 -0.027,-0.29 -0.081,-0.46534 -0.04,-0.17535 -0.121,-0.34395 -0.243,-0.50581 -0.121,-0.16186 -0.283,-0.29674 -0.485,-0.40465 -0.189,-0.1214 -0.432,-0.18209 -0.729,-0.18209 -0.296,0 -0.546,0.05395 -0.748,0.16186 -0.203,0.09442 -0.371,0.22255 -0.506,0.38441 -0.121,0.14837 -0.216,0.31698 -0.283,0.50581 -0.054,0.17535 -0.081,0.34395 -0.081,0.50581 v 5.22 c 0,0.5395 0.121,0.9846 0.364,1.3353 0.256,0.3507 0.674,0.526 1.254,0.526 0.418,0 0.776,-0.1348 1.073,-0.4046 0.31,-0.2698 0.465,-0.6407 0.465,-1.1128 z m 7.267,2.46835 C 129.032,7.11351 128.668,6.81676 128.331,6.39863 128.007,5.967 127.771,5.42073 127.623,4.7598 l -1.052,-4.188098 h 2.812 l 0.931,3.702528 c 0.189,0.75534 0.465,1.26789 0.829,1.53766 0.364,0.26976 0.742,0.40465 1.133,0.40465 h 0.749 V 0.511004 h 2.934 V 6.21654 h 0.728 c 0.189,0 0.378,-0.02698 0.566,-0.08093 0.203,-0.06744 0.385,-0.17535 0.547,-0.32372 0.175,-0.14837 0.337,-0.34395 0.485,-0.58674 0.149,-0.25628 0.27,-0.57325 0.365,-0.95092 l 0.95,-3.702528 h 2.813 L 141.34,4.7598 c -0.148,0.66093 -0.384,1.2072 -0.708,1.63883 -0.323,0.41813 -0.688,0.71488 -1.092,0.89022 l 0.02,0.08093 c 0.513,0.18884 0.917,0.49907 1.214,0.93069 0.31,0.41814 0.546,0.96441 0.708,1.63883 l 1.153,4.6737 h -2.954 l -0.91,-3.8037 c -0.202,-0.7419 -0.459,-1.26116 -0.769,-1.55791 -0.297,-0.31023 -0.701,-0.46534 -1.214,-0.46534 h -0.829 V 14.613 h -2.934 V 8.78605 h -0.83 c -0.512,0 -0.924,0.15511 -1.234,0.46534 -0.31,0.29675 -0.56,0.81601 -0.748,1.55791 l -0.911,3.8037 h -2.974 l 1.153,-4.6737 c 0.162,-0.67442 0.391,-1.22069 0.688,-1.63883 0.31,-0.43162 0.722,-0.74185 1.234,-0.93069 z M 150.282,14.613 V 8.82651 h -3.197 V 14.613 h -2.934 V 0.531236 h 2.934 V 6.15584 h 3.197 V 0.531236 h 2.893 V 14.613 Z m 5.349,0 V 0.531236 h 2.934 V 5.81189 h 1.8 c 0.742,0 1.39,0.1079 1.943,0.32372 0.553,0.21581 1.005,0.51255 1.355,0.89022 0.351,0.37767 0.614,0.83627 0.789,1.3758 0.176,0.52605 0.263,1.0993 0.263,1.71977 0,0.7553 -0.108,1.4163 -0.323,1.9828 -0.203,0.553 -0.499,1.0183 -0.891,1.396 -0.377,0.3642 -0.843,0.6407 -1.396,0.8295 -0.539,0.1889 -1.139,0.2833 -1.8,0.2833 z m 4.572,-2.7112 c 0.54,0 0.938,-0.1551 1.194,-0.4653 0.27,-0.3102 0.405,-0.7284 0.405,-1.2544 0,-0.60699 -0.142,-1.03187 -0.425,-1.27466 -0.283,-0.24278 -0.681,-0.36418 -1.194,-0.36418 h -1.618 v 3.35854 z m 5.625,2.7112 V 0.531236 h 2.934 V 14.613 Z m 5.393,0 V 0.531236 h 8.194 V 3.24238 h -5.261 v 2.91346 h 4.532 v 2.69091 h -4.532 v 2.99435 h 5.261 v 2.7719 z"
       fill="#000000"
       id="path10" />
  </g>
  <g
     style="fill:none"
     id="g26"
     transform="translate(0,163.20412)">
    <path
       d="m 33.436183,340.00883 c -10.3507,-18.842 -10.0114,-18.333 -10.5204,-19.182 l 20.5317,-43.965 h -17.3077 v -3.056 c -5.5996,-2.376 -9.672,-8.317 -9.672,-15.107 0,-5.093 2.2059,-9.506 5.5996,-12.392 2.2059,-1.358 4.5814,-2.207 6.957,-2.207 3.733,0 7.2964,1.528 9.6719,4.244 1.1878,1.358 2.2059,2.886 2.8846,4.583 0.3394,0.849 0.5091,1.868 0.6788,2.547 0.1697,0.509 0.1697,1.018 0.1697,1.527 0,0.34 0,0.849 0,1.358 0,3.904 -1.3575,7.809 -4.4118,11.204 4.2421,-1.698 7.2964,-6.111 8.1448,-10.864 0.1697,-0.679 0.1697,-1.189 0.1697,-1.868 0,-0.509 0,-1.018 0,-1.697 0,-1.018 -0.3394,-2.037 -0.5091,-2.886 l 2.5453,-0.339 c 2.0362,-0.34 3.224,-0.34 4.7511,0.679 2.8846,1.697 4.0724,6.45 1.6968,9.845 2.8847,-2.716 3.224,-8.318 -0.1696,-11.712 -1.5272,-1.698 -4.4118,-2.377 -6.2783,-2.547 l -4.0724,-0.509 c -0.6788,-1.018 -1.3575,-2.037 -2.2059,-3.055 -0.3394,-0.34 -0.6787,-0.679 -1.0181,-0.849 h 7.2964 c -0.5091,-2.207 -0.8484,-4.414 -0.8484,-6.96 0,-8.318 3.2239,-15.447 8.1448,-19.182 0.8484,-0.169 1.6968,-0.339 2.5452,-0.339 3.9027,0 7.6358,2.716 11.3688,6.45 -0.3394,-2.546 -1.5272,-5.092 -3.5634,-7.129 -0.6787,-0.679 -1.3574,-1.188 -2.2058,-1.698 l 28.3371,3.056 c -20.362,-9.506 -30.8824,-34.29 -23.586,-58.224 6.4479,-20.88 24.9434,-35.478 45.305797,-35.478 2.884,0 5.599,0.339 8.484,1.018 v -11.882 c -5.091,-1.358 -8.484,-3.565 -8.484,-6.281 0,-2.716 3.393,-4.753 8.314,-6.28 -0.17,-0.34 -0.339,-0.679 -0.339,-1.019 0,-0.509 0.339,-1.0185 0.678,-1.5277 0.17,-0.3395 0.51,-0.5093 0.849,-0.8488 -1.358,-0.8487 -2.545,-1.8672 -3.563,-3.0555 -0.17,-0.1697 -0.51,-0.5092 -0.679,-0.679 -1.018,-1.1882 -2.206,-2.3765 -3.054,-3.7345 -2.715,-4.074 -4.582,-8.8269 -5.43,-14.0892 -1.188,5.2623 -0.34,11.0337 2.036,15.9565 0.339,0.8487 0.848,1.5277 1.357,2.2067 -17.307397,-10.0152 -29.694297,-27.1599 -25.452197,-46.5114 0.6787,-1.8672 1.3575,-3.7345 2.2059,-5.432 1.5271,-2.8857 3.5633,-5.432 5.9389,-7.8085 1.1878,-1.1882 2.3756,-2.2067 3.733397,-3.2252 8.144,-5.7715 19.344,-7.1295 29.355,-3.2253 -4.582,-2.8857 -10.011,-4.4135 -15.441,-4.5832 -5.43,-0.1698 -11.03,1.358 -15.950597,3.9042 0,0 -0.1696,0 -0.1696,0.1698 4.921197,-14.259 20.531197,-24.61374 39.197197,-24.61374 7.805,0 15.101,1.86725 21.38,5.0925 0.848,0.50924 1.697,1.01849 2.545,1.69754 0.339,0.1697 0.509,0.5092 0.848,0.679 l 0.17,0.1697 c 7.636,5.9412 13.575,14.5985 14.084,24.7835 0,-1.358 0,-2.5463 -0.17,-3.9043 0,-0.679 -0.17,-1.358 -0.339,-2.037 -0.17,-0.679 -0.17,-1.1882 -0.34,-1.8672 -0.169,-1.0185 -0.509,-1.8673 -0.848,-2.8858 -0.17,-0.3395 -0.17,-0.5092 -0.339,-0.8487 -0.34,-0.8488 -0.679,-1.6975 -1.019,-2.3765 -0.169,-0.3395 -0.339,-0.8488 -0.509,-1.1883 -2.205,-4.2437 -5.09,-7.8084 -8.653,-11.03369 0,0 0,0 -0.17,-0.16975 C 170.03138,3.395 178.00638,0 186.66038,0 c 7.975,0.16975 16.12,3.22525 22.568,8.99674 3.054,2.54629 5.599,5.77149 7.635,9.33619 0.679,1.1883 1.358,2.5463 2.037,3.7345 2.036,4.2438 3.224,8.827 3.563,13.58 0.339,-4.9227 -0.17,-9.8455 -1.527,-14.5985 6.448,-0.1697 13.065,2.037 18.495,6.4505 2.376,2.037 4.582,4.4135 6.279,7.1295 0.339,0.679 0.678,1.1883 1.018,1.8673 0.169,0.3395 0.509,0.8487 0.678,1.1882 0.34,0.679 0.509,1.1883 0.849,1.8673 0.339,0.6789 0.678,1.358 0.848,2.2067 0.679,2.2067 1.188,4.4135 1.358,6.6203 0.169,-1.0185 0.169,-2.037 0,-3.395 0,-2.3765 -0.17,-4.7531 -0.679,-7.1295 -0.17,-0.5093 -0.339,-1.1883 -0.509,-1.6975 7.466,0.3395 14.593,2.8857 20.532,6.9597 6.278,4.4135 11.538,10.6943 14.253,17.9935 1.866,4.9227 2.715,10.3547 2.545,15.617 0,0.3395 0,0.8487 0,1.1882 -0.169,2.2067 -0.339,4.4135 -0.848,6.6202 -1.358,5.2623 -3.733,10.3548 -7.127,14.9385 -1.527,2.037 -3.224,4.074 -5.26,5.941 2.036,-1.528 3.733,-3.225 5.599,-4.923 4.073,-4.2437 7.127,-9.506 8.994,-15.1077 0.169,-0.679 0.339,-1.5277 0.509,-2.2067 0.339,-1.358 0.848,-2.8858 1.018,-4.2438 0,-0.5092 0,-0.8487 0.169,-1.358 0,0.5093 0,0.8488 0,1.358 13.066,4.2438 22.399,16.6355 22.399,31.0642 0,2.716 -0.34,5.262 -1.018,7.808 -0.17,0.849 -0.509,1.698 -0.849,2.377 -1.188,3.055 -2.884,5.941 -5.09,8.657 -0.17,0.34 -0.509,0.679 -0.679,0.849 -5.43,6.111 -13.575,10.015 -22.229,10.524 5.261,0.34 10.69,-0.848 15.611,-3.225 2.715,-1.188 5.26,-2.886 7.466,-4.923 0.34,-0.169 0.509,-0.509 0.849,-0.679 0,0 0,0 0.169,-0.169 2.715,-2.377 4.921,-5.432 6.618,-8.658 3.903,4.414 6.448,10.185 6.448,16.636 0,3.055 -0.679,6.111 -1.697,8.827 -0.339,0.679 -0.679,1.528 -1.018,2.207 -0.17,0.339 -0.339,0.509 -0.509,0.848 -0.509,0.849 -1.188,1.698 -1.697,2.377 -0.339,0.339 -0.509,0.679 -0.678,1.018 -3.734,4.414 -9.333,7.3 -15.272,7.979 -0.509,0 -0.848,0.169 -1.357,0.169 0.339,0 0.848,0 1.187,0 2.206,0 4.242,-0.169 6.448,-0.848 3.903,-1.019 7.636,-2.716 10.69,-5.432 15.611,52.283 -16.459,41.079 -40.554,16.296 -11.878,-0.17 -22.228,-7.13 -27.319,-17.145 0.679,-0.34 1.358,-0.509 1.867,-0.849 1.696,-0.849 3.393,-2.037 4.92,-3.225 0.509,-0.34 1.018,-0.849 1.528,-1.188 -3.224,1.188 -6.448,1.867 -9.503,2.546 -0.848,0.17 -1.697,0.339 -2.375,0.339 -0.679,0 -1.188,0.17 -1.867,0.34 -1.866,0.17 -3.733,0.17 -5.43,0.17 -2.715,-0.34 -5.43,-0.849 -7.975,-1.698 -3.054,-0.679 -5.599,-1.867 -7.636,-3.395 -8.314,-4.753 -14.932,-12.561 -18.156,-21.898 1.867,0.17 3.733,0.34 5.43,0.17 2.545,-0.17 4.921,-0.339 7.297,-1.018 4.242,-1.019 8.314,-3.056 11.538,-5.602 0.509,-0.509 1.188,-0.849 1.697,-1.358 -4.751,1.528 -9.333,2.716 -13.914,3.225 -3.054,0.34 -5.939,0.17 -8.824,0 -1.527,-0.17 -3.054,-0.17 -4.751,-0.509 h -0.169 c -4.412,-0.849 -8.824,-2.377 -13.066,-4.413 -1.018,-0.51 -2.036,-1.189 -3.054,-1.868 -4.582,-3.565 -8.315,-8.148 -11.03,-13.41 -1.188,-0.17 -2.545,-0.17 -3.903,-0.17 -1.018,-0.848 -1.866,-1.358 -2.884,-1.867 -2.036,-0.8487 -3.903,-1.5277 -5.939,-2.037 -1.018,-0.1697 -2.036,-0.3395 -3.054,-0.5092 -2.885,-0.5093 -5.77,-0.8488 -8.824,-0.8488 -7.636,-0.1697 -15.271,0.5093 -22.398,3.056 -0.339,0.169 -0.509,0.169 -0.848,0.169 h 0.169 c 0.17,0 0.509,0 0.679,-0.169 3.563,-0.8492 7.296,-1.1887 11.029,-1.3585 1.867,0 3.733,0 5.6,0.1698 1.866,0.1697 3.733,0.3395 5.43,0.5092 1.018,0.1698 2.036,0.3395 3.054,0.5095 0.339,0 0.679,0.17 1.018,0.17 2.376,0.509 4.751,1.018 6.957,1.697 0.509,0.17 1.018,0.34 1.358,0.509 1.187,0.51 2.375,1.019 3.563,1.698 0.679,0.339 1.188,0.849 1.527,1.188 0.339,0.509 0.509,1.188 0.509,1.867 0,2.377 -2.715,4.414 -6.787,5.772 -0.509,-0.34 -1.018,-0.679 -1.527,-1.019 -1.697,-0.848 -3.394,-1.188 -4.921,-1.697 -3.224,-0.679 -6.618,-1.019 -9.842,-1.019 -6.448,0 -13.065,0.849 -19.174,3.056 6.278,-1.528 12.726,-1.698 19.005,-1.019 3.224,0.34 6.278,1.019 9.162,2.037 1.528,0.509 2.885,1.019 4.073,1.867 0.679,0.51 1.357,1.019 1.527,1.358 v 29.197 l 38.688,23.935 c 1.188,-3.225 8.823,-4.583 16.12,-4.583 7.805,0 16.289,1.697 16.289,5.432 0,1.358 -1.187,2.546 -3.054,3.395 -0.509,-0.679 -1.188,-1.188 -1.697,-1.358 -1.018,-0.509 -2.036,-0.849 -3.054,-1.188 -2.036,-0.51 -4.073,-0.679 -6.278,-0.849 -4.073,-0.17 -8.315,0.17 -12.218,1.188 4.073,-0.679 8.145,-0.509 12.048,0.17 2.036,0.339 3.903,0.679 5.769,1.358 1.527,0.509 3.224,1.528 3.563,2.376 v 2.037 l -0.169,9.506 1.866,-7.469 10.012,0.17 c 3.224,0.17 6.617,1.698 9.163,3.904 2.545,2.207 4.411,5.432 5.09,8.827 0.339,3.395 0.509,7.3 0.848,11.034 0.17,-3.734 0.679,-7.299 0.679,-11.203 -0.17,-2.716 -1.188,-5.263 -2.715,-7.639 0.849,0.339 1.697,0.849 2.545,1.188 2.037,1.188 4.073,2.377 5.939,3.904 1.867,1.528 3.394,3.226 4.921,5.093 1.358,1.867 2.715,3.734 3.564,5.771 l 1.187,48.888 1.188,-47.02 14.423,9.675 -14.762,-12.561 c -1.018,-2.377 -2.376,-4.244 -3.733,-6.281 -1.527,-2.037 -3.394,-3.734 -5.26,-5.432 -1.867,-1.528 -3.903,-2.886 -6.109,-4.074 26.81,5.262 37.67,30.046 37.67,30.385 l 1.527,3.565 29.016,22.916 v 56.697 l -4.242,-0.679 c -0.17,4.583 -1.188,11.203 -4.582,11.203 -1.527,0 -2.545,-1.528 -3.224,-3.395 0,-0.17 -0.17,-0.339 -0.17,-0.679 -0.339,-1.528 -0.678,-3.055 -0.848,-4.583 0,-0.34 0,-0.849 0,-1.188 -0.17,-3.226 0,-6.451 1.018,-9.337 -1.527,2.886 -2.036,6.111 -2.206,9.506 0,0.34 0,0.849 0,1.189 0,0.679 0,1.527 0,2.206 0,0.849 0.17,1.528 0.17,2.377 l -3.224,0.17 c -0.339,1.018 -0.679,2.037 -1.188,2.885 -0.848,1.358 -1.697,2.207 -3.054,2.207 -1.188,0 -2.206,-0.509 -3.054,-1.358 h -0.17 c 0,-0.17 -0.17,-0.17 -0.17,-0.339 0,0 0,0 0,-0.17 -0.339,-0.679 -0.679,-1.698 -1.018,-2.546 0,-0.17 0,-0.17 0,-0.34 -0.509,-1.867 -0.848,-3.734 -1.018,-5.602 0,-0.169 0,-0.339 0,-0.509 -0.339,-3.904 -0.339,-7.808 1.018,-11.713 -1.697,3.565 -2.206,7.639 -2.375,11.713 0,0.17 0,0.34 0,0.509 0,1.189 0,2.547 0.169,3.735 0,0.679 0.17,1.358 0.17,2.037 l -17.987,1.358 c -0.509,1.358 -1.357,2.546 -2.205,3.395 6.957,-0.679 13.914,-1.358 20.871,-1.867 0,0.169 0.169,0.339 0.169,0.509 l -24.434,3.904 c -1.018,0.509 -1.867,0.849 -2.715,1.358 -0.509,0.17 -2.715,0.679 -6.109,1.358 -0.169,0 -0.678,-0.17 -1.018,-0.679 -0.169,-0.17 -0.169,-0.17 -0.169,-0.339 -0.509,-0.51 -1.019,-1.358 -1.528,-2.207 0,-0.17 -0.169,-0.34 -0.169,-0.509 -0.849,-1.868 -1.697,-3.735 -2.206,-5.772 -1.188,-4.074 -1.867,-8.487 -2.376,-12.901 h 0.509 c -0.339,4.414 -0.339,8.827 0.17,13.41 0.17,1.868 0.509,3.735 1.018,5.602 0.17,0.509 0.17,1.019 0.34,1.528 0.169,0.509 0.339,0.849 0.509,1.358 0.169,0.339 0.339,0.849 0.509,1.188 -4.582,0.849 -10.351,1.698 -16.629,2.716 -0.17,0.17 -1.188,-0.17 -1.867,-1.018 0,0 0,-0.17 -0.17,-0.17 -0.678,-0.849 -1.357,-1.867 -2.036,-3.056 0,-0.169 -0.169,-0.339 -0.169,-0.509 -1.188,-2.207 -2.037,-4.753 -2.715,-7.299 -1.188,-4.414 -2.037,-9.167 -2.376,-13.92 h -0.339 c -0.17,4.753 -0.17,9.506 0.509,14.429 0.339,2.377 0.848,4.753 1.527,7.299 0.17,0.51 0.17,1.019 0.339,1.528 0.34,0.679 0.509,1.528 0.849,2.207 0.169,0.509 0.509,0.849 0.848,1.358 -8.145,1.358 -16.968,2.716 -25.452,3.904 -1.018,0.17 -2.037,-0.339 -3.055,-1.188 -1.357,-1.019 -2.545,-2.377 -3.393,-3.904 -0.17,-0.17 -0.17,-0.34 -0.34,-0.51 -1.697,-2.716 -3.054,-5.941 -4.072,-9.166 -2.206,-6.96 -3.394,-14.259 -3.733,-21.558 -0.339,7.299 0,14.768 1.527,22.237 0.679,3.055 1.527,5.941 2.885,8.997 0.339,0.679 0.509,1.358 0.848,1.867 0.509,0.849 1.018,1.867 1.697,2.716 0.339,0.509 0.848,1.018 1.188,1.528 -15.951,2.376 -29.695,4.413 -33.937,5.092 -1.357,0.17 -2.545,0.509 -3.563,0.679 v -0.339 c -0.849,0.169 -1.867,-0.34 -2.885,-1.189 -0.679,-0.509 -1.357,-1.188 -1.866,-2.037 -0.679,-1.018 -1.358,-2.037 -1.867,-3.225 -0.679,-1.188 -1.188,-2.546 -1.527,-3.734 -1.867,-5.093 -2.885,-10.525 -3.224,-15.957 -0.339,5.432 -0.17,11.204 0.848,16.636 0.17,1.188 0.509,2.376 0.849,3.395 0.509,1.527 1.018,3.225 1.866,4.753 0.17,0.169 0.34,0.509 0.34,0.679 0.339,0.679 0.848,1.358 1.357,1.867 -1.866,0.339 3.224,-0.509 -10.69,1.867 l -107.409497,20.879 c -1.6968,-3.055 -3.0543,-5.601 -4.4118,-8.148 -12.2172,1.528 -24.4344,3.226 -36.65155195,4.753 -0.5090496,0.679 21.88915195,-7.638 33.42765195,-9.166 z M 257.58738,62.46793 c 2.206,2.8857 3.903,5.9412 4.751,9.3362 0.849,2.716 1.019,5.432 0.849,8.3178 0,0.679 0,1.358 -0.17,2.2067 -0.509,3.5647 -1.697,6.9597 -3.393,10.185 2.884,-3.0555 4.751,-6.9598 5.429,-11.0337 0,-0.1698 0,-0.1698 0,-0.3396 0.509,-3.2252 0.509,-6.7899 -0.509,-10.0152 -2.036,-7.469 -8.144,-13.7497 -15.271,-15.617 3.394,1.8673 6.108,4.074 8.314,6.9598 z m -55.995,-1.6975 c 0.679,-0.679 1.357,-1.358 2.036,-2.2068 2.715,-3.395 4.412,-7.6387 4.921,-11.8824 0.17,-1.0185 0.17,-1.8673 0.17,-2.8858 0,-3.395 -0.679,-6.79 -2.206,-9.8455 -1.018,-2.3765 -2.546,-4.4135 -4.242,-6.111 -1.188,-1.1882 -2.546,-2.3765 -4.073,-3.2252 1.188,1.358 2.376,2.716 3.394,4.074 1.357,1.8672 2.375,3.9042 3.224,6.111 1.018,3.0555 1.527,6.111 1.527,9.1665 0,0.8487 0,1.6975 -0.17,2.5462 -0.509,4.753 -2.545,9.3362 -5.599,13.0707 -2.036,2.5463 -4.412,4.753 -7.297,6.4505 3.055,-1.1882 5.939,-3.0555 8.315,-5.2622 z m -41.063,23.5952 c 4.242,-1.5277 7.805,-4.5833 10.52,-8.148 0.339,-0.5092 0.848,-1.0185 1.188,-1.6975 1.357,-2.3765 2.375,-4.9227 3.054,-7.6387 0.17,-1.0185 0.339,-1.8673 0.339,-2.8858 0.17,-1.5277 0.17,-2.8857 0,-4.4135 -0.169,-2.2067 -0.848,-4.2437 -1.527,-6.2807 -1.018,-2.716 -2.545,-5.2622 -4.581,-7.469 1.866,2.716 3.054,5.7715 3.733,8.827 0.339,1.6975 0.679,3.2252 0.679,4.9227 0,2.2068 -0.17,4.2438 -0.679,6.2808 -0.509,2.5462 -1.527,5.0925 -2.885,7.2992 -2.375,4.074 -6.108,7.2992 -10.351,9.3362 -4.242,2.037 -9.162,2.8858 -14.253,2.3765 4.582,1.6976 10.011,1.358 14.763,-0.5092 z m 133.031,140.7222 v 2.886 l 16.969,10.525 z m 23.077,58.903 1.697,0.679 v -1.867 l -1.867,-40.74 -0.509,39.212 -22.398,-6.959 z m -270.305297,-9.336 c 18.8348,1.019 37.5,1.698 56.335297,1.698 6.108,0.169 12.217,0 18.325,0 -1.866,-0.849 -3.733,-1.868 -5.09,-3.395 -4.412,0 -8.824,0 -13.235,0 -18.835297,0.169 -37.670197,0.679 -56.335297,1.697 z m 6.957,-30.555 62.783297,2.207 c -0.34,0.34 -0.679,0.679 -1.019,1.019 -1.866,2.206 -2.715,5.092 -2.884,7.808 -0.17,1.358 0,2.546 0.339,3.735 v 0.169 c 1.018,-3.904 2.885,-6.96 5.43,-9.166 2.545,-2.207 5.43,-3.395 8.824,-3.395 2.884,0 6.108,1.188 8.653,3.395 0.34,0.17 0.509,0.509 0.849,0.849 1.018,1.018 1.866,2.206 2.715,3.564 0.169,0.509 0.509,0.849 0.678,1.358 0.51,1.019 0.849,2.207 1.188,3.395 0.17,-0.679 0.17,-1.528 0.34,-2.207 0,-0.848 0,-1.867 -0.17,-2.716 l 1.188,-0.169 c 2.036,-0.34 3.224,-0.34 4.751,0.679 2.884,1.697 4.072,6.45 1.697,9.845 2.884,-2.716 3.224,-8.317 -0.17,-11.712 -1.527,-1.698 -4.412,-2.377 -6.278,-2.547 l -2.206,-0.169 c -0.509,-1.019 -1.018,-1.868 -1.697,-2.716 -2.715,-3.565 -6.957,-5.772 -11.708,-5.772 -0.509,0 -1.018,0.17 -1.527,0.17 z m 24.2647,-20.03 54.977597,2.376 4.242,13.411 v -16.127 -2.206 l -2.376,0.169 z m 6.1086,-71.635 c 5.4299,-5.262 12.2172,-8.827 19.173997,-10.185 6.957,-1.188 14.254,0 20.193,3.565 6.108,3.565 10.69,9.336 13.235,15.957 2.545,6.62 3.393,14.259 2.036,21.728 3.224,-6.96 3.903,-15.278 1.527,-23.086 -2.206,-7.639 -7.296,-14.769 -14.423,-18.843 -7.127,-4.243 -15.78,-5.262 -23.586,-3.055 -7.635597,2.207 -14.083597,7.469 -18.155997,13.919 z m 59.558997,-12.052 c -0.509,-0.509 -1.018,-1.018 -1.527,-1.528 -4.242,-4.074 -9.333,-7.129 -14.763,-8.996 -11.029,-3.735 -23.416,-1.868 -32.239597,4.413 10.180597,-3.565 21.210597,-3.395 30.373597,0.679 9.163,4.074 16.459,11.713 20.192,21.049 3.903,9.167 4.412,19.861 2.036,29.706 -2.545,10.016 -8.145,19.182 -16.459,26.312 9.842,-4.584 17.817,-13.92 21.55,-24.784 3.393,-9.506 3.733,-20.2 0.678,-30.046 l 108.598,61.959 z m 19.174,42.777 16.968,2.377 50.566,23.934 -48.699,-28.348 -0.509,-0.339 h -0.509 z m 95.192,25.123 -1.187,-16.975 -1.188,17.654 v 0.679 l 0.679,0.34 8.653,4.243 z m 3.564,102.359 c 0.339,0 0.509,0 0.848,-0.17 1.358,-0.509 2.545,-1.867 3.394,-2.885 1.188,-1.698 2.036,-3.565 2.715,-5.263 1.188,-3.225 1.697,-6.62 2.036,-10.015 h -4.921 c -0.17,3.056 -0.509,6.111 -0.848,9.167 -0.34,1.697 -0.509,3.564 -1.018,5.262 -0.509,1.697 -1.019,3.395 -2.885,4.074 0.17,-0.17 0.339,-0.17 0.679,-0.17 z m 1.527,-13.24 c 0.17,-1.698 0.339,-3.395 0.339,-5.263 h -1.527 c -0.17,1.698 -0.509,3.226 -0.679,4.923 -0.509,3.565 -1.187,6.96 -2.036,10.525 2.206,-2.886 3.224,-6.621 3.903,-10.185 z m -21.041,15.956 c 0.339,-0.17 0.509,-0.509 0.679,-0.679 0.679,-0.679 1.188,-1.358 1.866,-2.207 1.358,-2.037 2.376,-4.413 3.055,-6.79 1.357,-3.734 1.866,-7.638 2.375,-11.543 h -4.921 c -0.169,3.565 -0.509,7.13 -1.187,10.695 -0.34,2.206 -0.849,4.413 -1.528,6.62 -0.509,1.188 -1.018,2.546 -1.696,3.395 -0.509,0.679 -1.188,1.358 -2.206,1.528 1.188,0.339 2.545,-0.17 3.563,-1.019 z m 0,-15.617 c 0.17,-1.867 0.339,-3.734 0.339,-5.602 h -1.527 c -0.169,1.698 -0.509,3.565 -0.678,5.263 -0.509,4.243 -1.358,8.317 -2.376,12.561 2.376,-3.565 3.394,-7.978 4.242,-12.222 z m -25.792,17.994 c 0.17,-0.17 0.509,-0.51 0.679,-0.679 2.036,-2.377 3.563,-5.093 4.581,-7.979 2.037,-4.753 3.055,-9.845 3.564,-14.768 h -4.921 c -0.509,4.583 -1.188,9.167 -2.376,13.58 -0.678,2.716 -1.696,5.432 -3.054,7.809 -0.509,0.848 -1.018,1.697 -1.697,2.376 -1.188,1.358 -2.545,2.546 -4.411,2.886 3.054,0.509 5.599,-1.188 7.635,-3.225 z m -2.545,-7.469 c 1.188,-2.716 1.867,-5.602 2.545,-8.488 0.509,-2.546 0.849,-5.092 1.018,-7.639 h -1.527 c -0.339,2.377 -0.679,4.753 -1.357,7.13 -0.509,2.886 -1.358,5.602 -2.206,8.318 -0.849,2.716 -2.036,5.432 -3.394,7.978 2.206,-2.037 3.733,-4.583 4.921,-7.299 z m -8.145,-48.209 15.272,12.222 4.411,3.564 8.824,7.13 -8.484,-0.509 h -0.17 l -4.581,-4.584 c 0,1.358 0,2.886 0,4.244 l -8.484,-0.509 0.678,5.602 h 1.358 1.866 1.018 3.224 4.921 4.751 6.957 4.242 0.679 3.224 4.751 12.387 0.339 2.885 4.751 4.751 v -0.51 -1.527 l -4.751,-0.34 c -0.169,-1.867 -0.339,-3.734 -0.679,-5.602 -0.678,-3.734 -1.866,-7.638 -4.072,-10.863 0.17,3.904 0.17,7.468 0.17,11.203 0,1.697 0,3.395 -0.17,5.092 l -15.78,-0.848 c -0.17,-2.886 -0.34,-5.772 -0.849,-8.657 -0.848,-4.753 -2.206,-9.506 -4.751,-13.58 0.679,4.753 0.848,9.336 1.018,13.919 0,2.716 0,5.432 0,8.148 l -3.224,-0.17 -17.817,-11.712 c 0,-0.17 0,-0.17 0,-0.34 -1.018,-5.941 -2.884,-11.882 -6.108,-16.805 1.188,4.923 1.697,9.676 2.206,14.598 l -22.229,-14.598 z m 23.077,-17.994 20.532,8.318 c 6.787,2.716 13.405,5.602 20.192,8.148 l 15.781,14.429 2.715,2.376 v -3.564 c 0,-9.337 -0.17,-18.673 -0.34,-28.009 -0.169,-9.336 -0.509,-18.673 -0.848,-28.009 -0.509,9.336 -1.018,18.673 -1.188,28.009 -0.17,8.148 -0.509,16.296 -0.679,24.444 l -13.235,-12.562 -0.17,-0.169 -0.339,-0.17 c -6.787,-2.886 -13.744,-5.432 -20.532,-8.148 l -20.701,-7.978 c -13.744,-5.093 -27.658,-10.185 -41.572,-14.938 13.235,6.28 26.809,12.052 40.384,17.823 z m -37.839,76.557 c 0,0 -1.358,-4.243 -2.206,-9.845 -3.563,0.339 -2.376,0.339 -2.376,0.339 0,0 -0.169,5.602 -3.393,10.695 5.769,-0.849 7.975,-1.189 7.975,-1.189 z m -17.478,3.056 c 0.17,-0.17 0.34,-0.509 0.509,-0.849 1.528,-2.037 2.546,-4.413 3.394,-6.62 1.867,-5.262 2.545,-10.864 2.545,-16.296 0,-5.432 -0.678,-11.034 -2.545,-16.296 -0.848,-2.716 -2.206,-5.262 -3.903,-7.469 -1.696,-2.207 -4.242,-4.414 -7.126,-3.904 2.715,0.679 4.072,2.885 5.09,5.092 1.018,2.207 1.697,4.753 2.206,7.299 1.018,5.093 1.358,10.185 1.358,15.278 0,5.092 -0.34,10.355 -1.358,15.277 -0.509,2.547 -1.188,4.923 -2.206,7.3 -0.169,0.339 -0.339,0.509 -0.509,0.848 -1.018,1.868 -2.375,3.735 -4.751,4.244 2.885,0.509 5.6,-1.697 7.296,-3.904 z m -7.296,0.17 c 2.885,-3.056 4.242,-7.13 5.091,-11.034 0.678,-4.244 1.018,-8.488 0.339,-12.731 -0.849,4.243 -1.188,8.317 -2.206,12.391 -0.679,3.905 -1.867,7.639 -3.394,11.543 0,0.17 -0.169,0.34 -0.169,0.34 0.169,-0.17 0.169,-0.34 0.339,-0.509 z m -4.751,-96.758 c 1.697,3.056 2.545,6.621 3.054,10.185 0.509,3.735 0.34,7.469 -0.169,11.374 4.411,-6.79 4.581,-15.957 0.848,-23.596 0,-0.169 -0.17,-0.169 -0.17,-0.339 5.769,2.376 11.708,4.583 17.647,6.79 3.564,1.867 5.939,5.771 7.127,9.845 0.509,2.037 0.848,4.414 0.848,6.621 0,2.206 0,4.583 -0.509,6.79 0.849,-2.207 1.188,-4.414 1.528,-6.79 0.339,-2.377 0.339,-4.753 0,-7.13 -0.679,-4.753 -2.885,-9.506 -7.467,-12.392 h -0.169 c -8.315,-3.734 -16.629,-7.299 -25.113,-10.524 -1.018,-0.509 -2.037,-1.019 -3.224,-1.358 h -0.17 c -4.412,-1.019 -8.824,1.018 -10.86,4.244 3.394,-2.037 7.127,-2.377 10.181,-1.019 2.715,1.528 4.921,4.244 6.618,7.299 z m -2.036,50.925 h 1.187 v -1.188 c -0.169,-4.923 -0.169,-10.015 -0.509,-14.938 -0.169,-4.923 -0.339,-10.015 -0.678,-14.938 -0.34,4.923 -0.509,10.015 -0.679,14.938 -0.17,4.583 -0.339,9.166 -0.509,13.75 -6.957,-0.17 -13.914,-0.34 -20.871,-0.34 -1.358,1.358 -3.224,2.546 -5.091,3.395 9.163,-0.339 18.156,-0.339 27.15,-0.679 z m -120.136097,63.147 3.0543,5.262 0.6788,1.019 1.0181,1.867 2.3755,-0.509 33.4276,-7.299 70.248797,-15.278 -5.43,0.849 v -0.34 l -1.018,-42.607 -3.394,43.117 v 0.169 l -0.339,0.34 -8.823,1.358 v -0.679 l 1.527,-44.644 -5.769,45.153 v 0.509 l -0.34,0.17 -8.654,1.358 v -1.018 l 3.733,-46.682 -8.144,47.191 -0.17,1.018 -9.502,1.528 0.169,-1.188 6.788,-48.718 -11.199497,49.227 -0.3394,1.358 -8.9932,1.358 0.3394,-1.528 9.1629,-50.755 -13.5747,51.434 -0.3394,1.528 -8.6538,1.358 0.3394,-1.528 11.3687,-52.962 -15.7805,53.641 -0.5091,1.698 -8.8235,1.358 0.5091,-1.698 13.7443,-54.999 -18.3258,55.678 -0.509,1.868 -8.6539,1.358 0.5091,-1.868 16.1199,-57.205 -20.8711,57.884 -0.1696,0.34 -0.3394,-0.34 -4.7511,-5.092 16.4592,-53.132 -19.6832,49.567 -4.4118,-4.583 0.3394,-1.019 14.2534,-44.135 -17.6471,41.25 -0.1697,0.339 -0.8484,-1.018 z"
       fill="#000000"
       id="path2-1" />
  </g>
  <g
     style="fill:none"
     id="g85"
     transform="translate(9.3409187,469.69905)">
    <path
       d="m 75.5498,44.9303 c 31.3912,-6.79 34.4452,-6.79 65.8372,-12.901 20.192,-3.7345 40.384,-7.2992 60.577,-11.0337 0.679,-0.1698 1.357,-0.1697 2.036,-0.3395 9.333,-1.6975 18.835,-3.395 28.167,-4.9228 0.849,-0.1697 1.867,-0.3394 2.715,-0.5092 0.34,0 0.679,-0.1697 1.188,-0.1697 l 17.987,-2.8858 2.545,-0.5092 26.81,-4.41355 C 299.192,4.86936 315.143,2.32314 330.923,0.116394 315.312,3.68114 299.532,6.90638 283.921,10.3014 l -47.172,9.506 -94.344,18.5027 -94.3439,17.654 -47.341618,8.4874 z"
       fill="#000000"
       id="path76" />
  </g>
</svg>
